HIERARCHY
ROOT hip
{
	OFFSET 0.000000 0.000000 0.000000 
	CHANNELS 6 Xposition Yposition Zposition Xrotation Zrotation Yrotation
	JOINT abdomen
	{
		OFFSET 0.000000 3.402643 0.000000 
		CHANNELS 3 Xrotation Zrotation Yrotation
		JOINT chest
		{
			OFFSET 0.000000 8.438565 -0.680529 
			CHANNELS 3 Xrotation Zrotation Yrotation
			JOINT neck
			{
				OFFSET 0.000000 10.207942 -0.272212 
				CHANNELS 3 Xrotation Zrotation Yrotation
				JOINT head
				{
					OFFSET 0.000000 3.130431 0.000000 
					CHANNELS 3 Xrotation Zrotation Yrotation
					End Site
					{
						OFFSET 0.000000 3.130435 0.000000 
					}
				}
			}
			JOINT lCollar
			{
				OFFSET 3.470700 6.669187 -0.816635 
				CHANNELS 3 Yrotation Zrotation Xrotation
				JOINT lShldr
				{
					OFFSET 3.198488 0.000000 0.000000 
					CHANNELS 3 Zrotation Yrotation Xrotation
					JOINT lForeArm
					{
						OFFSET 10.139888 0.000000 0.000000 
						CHANNELS 3 Yrotation Zrotation Xrotation
						JOINT lHand
						{
							OFFSET 8.370511 0.000000 0.000000 
							CHANNELS 3 Zrotation Yrotation Xrotation
							End Site
							{
								OFFSET 4.083176 0.000000 0.000000 
							}
						}
					}
				}
			}
			JOINT rCollar
			{
				OFFSET -3.470700 6.669187 -0.816635 
				CHANNELS 3 Yrotation Zrotation Xrotation
				JOINT rShldr
				{
					OFFSET -3.198488 0.000000 0.000000 
					CHANNELS 3 Zrotation Yrotation Xrotation
					JOINT rForeArm
					{
						OFFSET -10.139888 0.000000 0.000000 
						CHANNELS 3 Yrotation Zrotation Xrotation
						JOINT rHand
						{
							OFFSET -8.370511 0.000000 0.000000 
							CHANNELS 3 Zrotation Yrotation Xrotation
							End Site
							{
								OFFSET -4.083176 0.000000 0.000000 
							}
						}
					}
				}
			}
		}
	}
	JOINT lThigh
	{
		OFFSET 5.308129 -1.633274 1.361059 
		CHANNELS 3 Xrotation Zrotation Yrotation
		JOINT lShin
		{
			OFFSET -2.041588 -20.007561 0.000000 
			CHANNELS 3 Xrotation Zrotation Yrotation
			JOINT lFoot
			{
				OFFSET 0.000000 -19.190928 -1.224953 
				CHANNELS 3 Xrotation Yrotation Zrotation
				End Site
				{
					OFFSET 0.000000 -2.449906 4.627600 
				}
			}
		}
	}
	JOINT rThigh
	{
		OFFSET -5.308129 -1.633274 1.361059 
		CHANNELS 3 Xrotation Zrotation Yrotation
		JOINT rShin
		{
			OFFSET 2.041588 -20.007561 0.000000 
			CHANNELS 3 Xrotation Zrotation Yrotation
			JOINT rFoot
			{
				OFFSET 0.000000 -19.190928 -1.224953 
				CHANNELS 3 Xrotation Yrotation Zrotation
				End Site
				{
					OFFSET 0.000000 -2.449906 4.627600 
				}
			}
		}
	}
}
MOTION
Frames: 6
Frame Time: 0.011111
-0.090821 52.726074 12.422840 -3.596055 0.164466 -5.617107 25.291275 -3.726990 2.794504 -22.460934 -1.152676 1.061383 -11.368830 -4.850291 -4.187013 19.626423 12.856850 -7.498424 2.424333 -4.683778 1.783845 -65.496307 -29.540981 9.812510 -43.791111 6.014771 5.755758 8.524705 12.647240 -55.100964 -2.738486 -1.140572 2.095526 48.404869 64.357307 39.138992 104.432037 -11.051042 42.512669 -8.534408 -12.637552 53.529156 11.239389 8.143333 -6.743924 9.770204 -5.983941 -2.098824 -24.885420 15.166930 3.593252 1.502687 -25.490864 -5.182184 -0.117497 5.940331 0.662490 -4.992636 0.504103 3.243239 
-0.087813 52.726974 12.424645 -3.576926 0.218156 -5.571362 25.224979 -3.737943 2.727141 -22.480507 -1.124143 1.040850 -11.418517 -4.886121 -4.194775 19.523018 12.764505 -7.540058 2.424333 -4.683778 1.783845 -65.543587 -29.413342 9.774778 -43.811512 6.018704 5.755379 8.524705 12.647240 -55.013073 -2.738486 -1.140572 2.095526 48.082344 64.768593 38.783390 104.508919 -11.058517 42.559269 -8.534408 -12.637552 53.275246 11.206965 8.082142 -6.792656 9.792197 -5.985409 -2.100658 -24.923624 15.136831 3.591395 1.502688 -25.490864 -5.182184 -0.117495 5.940331 0.662490 -4.991573 0.507157 3.244541 
-0.088113 52.723366 12.418631 -3.586945 0.230009 -5.523278 25.206884 -3.709106 2.653793 -22.441479 -1.106418 1.019513 -11.389542 -4.941575 -4.136838 19.282183 12.808109 -7.458405 2.424333 -4.683778 1.783845 -65.562721 -29.374004 9.648355 -43.801067 6.012912 5.747334 8.524705 12.647240 -55.013073 -2.738486 -1.140572 2.095526 47.739017 65.257996 38.378620 104.561150 -11.066970 42.575645 -8.534408 -12.637552 53.011581 11.228382 8.083758 -6.812637 9.787800 -5.992726 -2.101197 -24.902052 15.134777 3.584326 1.502685 -25.490864 -5.182185 -0.117496 5.940331 0.662490 -4.980083 0.510740 3.245821 
-0.088415 52.721260 12.413518 -3.596899 0.221773 -5.483720 25.198420 -3.699632 2.603503 -22.421982 -1.088324 0.998572 -11.233454 -4.981130 -4.105318 18.742428 12.856853 -7.432829 2.424333 -4.683778 1.783845 -65.582031 -29.344425 9.551228 -43.811512 6.018704 5.755379 8.524705 12.647240 -55.003307 -2.738486 -1.140572 2.095526 47.384243 65.766884 37.944412 104.615250 -11.072873 42.599422 -8.534408 -12.637552 52.835800 11.227398 8.102138 -6.829385 9.734916 -5.985924 -2.085645 -24.827637 15.129517 3.558839 1.502689 -25.490868 -5.182184 -0.117495 5.940331 0.662490 -4.980662 0.513097 3.236311 
-0.085708 52.724869 12.410812 -3.568089 0.247713 -5.426341 25.293098 -3.803898 2.687649 -22.304667 -1.195596 1.040767 -11.564135 -4.830901 -4.201082 18.386593 12.805370 -7.673543 2.424333 -4.683778 1.783845 -65.419052 -29.659273 9.546721 -43.801067 6.012912 5.747334 8.524705 12.647240 -55.296272 -2.738486 -1.140572 2.095526 46.964520 66.314903 37.138912 104.657295 -11.080239 42.622715 -8.534408 -12.637552 52.650246 11.196914 8.091626 -6.880305 9.717196 -5.996670 -2.075852 -24.794590 15.135230 3.532647 1.502685 -25.490864 -5.182185 -0.117496 5.940332 0.662490 -4.990639 0.513853 3.236801 
-0.084505 52.728180 12.410812 -3.568556 0.281815 -5.350190 25.663832 -4.101490 2.961622 -21.913700 -1.490889 1.143424 -12.962657 -4.280253 -4.467914 18.600189 12.607719 -8.179949 2.424333 -4.683778 1.783845 -64.921776 -30.701498 9.772241 -43.637348 5.964726 5.697107 8.524705 12.647240 -55.608776 -2.738486 -1.140572 2.095526 46.352638 67.087822 35.589653 104.646881 -11.078712 42.621765 -8.534408 -12.637552 52.337753 11.177428 8.082156 -6.931305 9.705997 -5.995821 -2.083646 -24.751200 15.154612 3.528114 1.502686 -25.490864 -5.182185 -0.117497 5.940330 0.662490 -4.992417 0.504716 3.243505 
